HIERARCHY
ROOT Hips
{
	OFFSET -0.001795 -0.223333 0.028219
	CHANNELS 6 Xposition Yposition Zposition Zrotation Yrotation Xrotation 
	JOINT LeftUpLeg
	{
		OFFSET 0.069520 -0.091406 -0.006815
		CHANNELS 3 Zrotation Yrotation Xrotation
		JOINT LeftLeg
		{
			OFFSET 0.034277 -0.375199 -0.004496
			CHANNELS 3 Zrotation Yrotation Xrotation
			JOINT LeftFoot
			{
				OFFSET -0.013596 -0.397961 -0.043693
				CHANNELS 3 Zrotation Yrotation Xrotation
				JOINT LeftToe
				{
					OFFSET 0.026358 -0.055791 0.119288
					CHANNELS 3 Zrotation Yrotation Xrotation
					End Site
					{
						OFFSET 0.000000 0.000000 0.000000
					}
				}
			}
		}
	}
	JOINT RightUpLeg
	{
		OFFSET -0.067670 -0.090522 -0.004320
		CHANNELS 3 Zrotation Yrotation Xrotation
		JOINT RightLeg
		{
			OFFSET -0.038290 -0.382569 -0.008850
			CHANNELS 3 Zrotation Yrotation Xrotation
			JOINT RightFoot
			{
				OFFSET 0.015774 -0.398415 -0.042312
				CHANNELS 3 Zrotation Yrotation Xrotation
				JOINT RightToe
				{
					OFFSET -0.025372 -0.048144 0.123348
					CHANNELS 3 Zrotation Yrotation Xrotation
					End Site
					{
						OFFSET 0.000000 0.000000 0.000000
					}
				}
			}
		}
	}
	JOINT Spine
	{
		OFFSET -0.002533 0.108963 -0.026696
		CHANNELS 3 Zrotation Yrotation Xrotation
		JOINT Spine1
		{
			OFFSET 0.005487 0.135180 0.001092
			CHANNELS 3 Zrotation Yrotation Xrotation
			JOINT Spine2
			{
				OFFSET 0.001457 0.052922 0.025425
				CHANNELS 3 Zrotation Yrotation Xrotation
				JOINT Neck
				{
					OFFSET -0.002778 0.213870 -0.042857
					CHANNELS 3 Zrotation Yrotation Xrotation
					JOINT Head
					{
						OFFSET 0.005152 0.064970 0.051349
						CHANNELS 3 Zrotation Yrotation Xrotation
						End Site
						{
							OFFSET 0.000000 0.000000 0.000000
						}
					}
				}
				JOINT LeftShoulder
				{
					OFFSET 0.078845 0.121749 -0.034090
					CHANNELS 3 Zrotation Yrotation Xrotation
					JOINT LeftArm
					{
						OFFSET 0.090977 0.030469 -0.008868
						CHANNELS 3 Zrotation Yrotation Xrotation
						JOINT LeftForeArm
						{
							OFFSET 0.259612 -0.012772 -0.027456
							CHANNELS 3 Zrotation Yrotation Xrotation
							JOINT LeftHand
							{
								OFFSET 0.249234 0.008986 -0.001171
								CHANNELS 3 Zrotation Yrotation Xrotation
								End Site
								{
									OFFSET 0.000000 0.000000 0.000000
								}
							}
						}
					}
				}
				JOINT RightShoulder
				{
					OFFSET -0.081759 0.118833 -0.038615
					CHANNELS 3 Zrotation Yrotation Xrotation
					JOINT RightArm
					{
						OFFSET -0.096012 0.032551 -0.009143
						CHANNELS 3 Zrotation Yrotation Xrotation
						JOINT RightForeArm
						{
							OFFSET -0.253742 -0.013329 -0.021401
							CHANNELS 3 Zrotation Yrotation Xrotation
							JOINT RightHand
							{
								OFFSET -0.255298 0.007772 -0.005559
								CHANNELS 3 Zrotation Yrotation Xrotation
								End Site
								{
									OFFSET 0.000000 0.000000 0.000000
								}
							}
						}
					}
				}
			}
		}
	}
}
MOTION
Frames: 6
Frame Time: 0.050000
0.000000 0.953758 0.000000 -1.667246 -2.728269 4.176599 6.542023 -0.105076 -0.108103 -0.736823 0.092172 -0.312807 1.623518 6.569793 10.462604 0.000000 0.000000 0.000000 -6.297365 0.267315 -0.405206 1.295025 -0.065123 2.116605 -4.019240 -12.150463 8.644561 0.000000 0.000000 0.000000 5.867302 0.467189 -6.163172 -3.978366 1.493974 -26.017113 0.192142 8.729941 19.278509 7.775340 -1.917484 -23.515509 0.000000 0.000000 0.000000 28.210348 -6.574197 3.477531 9.985102 -32.694572 -4.656609 37.314110 -1.939578 -1.517287 0.000000 0.000000 0.000000 -16.239801 1.229073 -0.161453 -9.389314 36.329655 -3.683497 -30.278025 6.463933 -0.476211 0.000000 0.000000 0.000000
-0.000710 0.953329 0.004480 -2.809226 -4.405085 5.449150 7.522936 -0.104174 0.023110 -1.115914 0.168364 -1.653962 1.728520 6.559963 10.445304 0.000000 0.000000 0.000000 -6.069643 0.357066 -1.689647 1.723655 -0.104815 2.171443 -3.750253 -11.953185 9.509025 0.000000 0.000000 0.000000 6.512411 0.787164 -8.966282 -4.043872 1.480834 -25.199705 0.876543 8.934087 19.506062 7.762707 -1.557369 -26.898573 0.000000 0.000000 0.000000 26.320732 -2.950403 1.965015 8.105888 -31.145777 -3.875342 46.059608 -6.107619 -3.574673 0.000000 0.000000 0.000000 -13.681237 -1.555024 -0.588073 -11.670577 35.819824 -4.296257 -30.637106 9.444204 -1.312824 0.000000 0.000000 0.000000
-0.001571 0.950267 0.009406 -2.304230 -5.921279 4.655877 7.133625 0.009302 2.049726 -1.018870 0.161678 -1.664461 2.083853 6.508809 8.062584 0.000000 0.000000 0.000000 -6.176015 0.329493 -0.765744 1.201493 -0.028063 2.545480 -3.375782 -11.079941 8.459988 0.000000 0.000000 0.000000 7.105499 0.926355 -9.477488 -4.083752 1.480302 -27.777874 0.845381 10.424047 22.354311 7.573925 -1.385273 -27.308998 0.000000 0.000000 0.000000 24.641541 -1.108236 1.754073 6.080924 -30.879650 -3.565682 51.864182 -7.389397 -4.948562 0.000000 0.000000 0.000000 -10.812423 -1.967127 -0.836156 -9.779824 34.278240 -3.697494 -37.584877 14.139234 -3.105860 0.000000 0.000000 0.000000
-0.002534 0.947958 0.014489 -2.298343 -5.845848 4.595395 7.753779 0.005137 2.394043 -2.037830 0.256002 -0.715702 1.852769 5.828948 6.895657 0.000000 0.000000 0.000000 -6.491746 0.321753 -0.250978 2.314444 -0.137401 3.249695 -3.998177 -12.434440 9.146189 0.000000 0.000000 0.000000 6.896966 1.139079 -11.399879 -4.148236 1.494376 -27.900158 1.121150 10.301727 23.176596 7.208459 -1.233212 -27.163883 0.000000 0.000000 0.000000 22.196579 0.538575 1.976174 4.493940 -28.080227 -2.866198 58.997334 -9.444161 -7.060059 0.000000 0.000000 0.000000 -7.889455 -4.594375 -1.567357 -8.553727 33.839844 -3.507520 -43.931705 17.275499 -4.914813 0.000000 0.000000 0.000000
-0.003900 0.943739 0.019547 -1.646766 -5.636006 4.016145 8.231583 0.010776 2.805276 -3.162355 0.383766 -0.252297 1.061874 4.355402 6.754497 0.000000 0.000000 0.000000 -7.174907 0.297600 1.170667 2.647053 -0.191658 2.671979 -4.026159 -12.321092 8.566259 0.000000 0.000000 0.000000 5.992390 1.186760 -12.483250 -4.057918 1.475908 -27.218763 0.573034 10.014317 22.240698 7.152109 -1.393361 -25.779301 0.000000 0.000000 0.000000 19.808163 2.757382 2.004356 1.775308 -27.348558 -2.392850 67.833710 -10.772337 -9.306901 0.000000 0.000000 0.000000 -4.828495 -6.182511 -2.093614 -4.623793 31.798882 -2.663395 -52.791458 21.674822 -8.094189 0.000000 0.000000 0.000000
-0.005151 0.939993 0.024009 -1.527351 -5.529545 3.170678 8.387783 0.033561 3.297698 -3.887618 0.476493 1.164072 1.558429 4.711088 4.574637 0.000000 0.000000 0.000000 -7.511929 0.266032 2.420511 3.260264 -0.262355 2.759394 -4.002442 -11.964376 7.346109 0.000000 0.000000 0.000000 5.571680 1.225238 -13.090401 -3.826873 1.430724 -26.997005 0.765573 9.737696 22.403580 6.744874 -1.232110 -25.433220 0.000000 0.000000 0.000000 18.331640 4.627070 1.688808 -4.023787 -26.225273 -1.620892 77.402756 -12.975256 -12.606818 0.000000 0.000000 0.000000 -4.795057 -7.990160 -2.656800 1.624720 30.071999 -1.606978 -61.401028 23.800924 -10.628154 0.000000 0.000000 0.000000
